<?xml version="1.0" encoding="UTF-8" standalone="no"?>
<!DOCTYPE svg PUBLIC "-//W3C//DTD SVG 1.1//EN"
 "http://www.w3.org/Graphics/SVG/1.1/DTD/svg11.dtd">
<!-- Generated by graphviz version 2.43.0 (0)
 -->
<!-- Title: %3 Pages: 1 -->
<svg width="2022pt" height="836pt"
 viewBox="0.00 0.00 2021.51 836.00" xmlns="http://www.w3.org/2000/svg" xmlns:xlink="http://www.w3.org/1999/xlink">
<g id="graph0" class="graph" transform="scale(1 1) rotate(0) translate(4 832)">
<title>%3</title>
<polygon fill="white" stroke="transparent" points="-4,4 -4,-832 2017.51,-832 2017.51,4 -4,4"/>
<!-- vim -->
<g id="node1" class="node">
<title>vim</title>
<ellipse fill="none" stroke="black" cx="1677.77" cy="-810" rx="27.9" ry="18"/>
<text text-anchor="middle" x="1677.77" y="-806.3" font-family="Times,serif" font-size="14.00">vim</text>
</g>
<!-- vim&#45;common -->
<g id="node2" class="node">
<title>vim&#45;common</title>
<ellipse fill="none" stroke="black" cx="1579.77" cy="-738" rx="69.59" ry="18"/>
<text text-anchor="middle" x="1579.77" y="-734.3" font-family="Times,serif" font-size="14.00">vim&#45;common</text>
</g>
<!-- vim&#45;&gt;vim&#45;common -->
<g id="edge1" class="edge">
<title>vim&#45;&gt;vim&#45;common</title>
<path fill="none" stroke="black" d="M1659.79,-796.16C1646.05,-786.35 1626.78,-772.58 1610.59,-761.02"/>
<polygon fill="black" stroke="black" points="1612.63,-758.17 1602.46,-755.21 1608.56,-763.87 1612.63,-758.17"/>
</g>
<!-- vim&#45;runtime -->
<g id="node3" class="node">
<title>vim&#45;runtime</title>
<ellipse fill="none" stroke="black" cx="1385.77" cy="-738" rx="67.69" ry="18"/>
<text text-anchor="middle" x="1385.77" y="-734.3" font-family="Times,serif" font-size="14.00">vim&#45;runtime</text>
</g>
<!-- vim&#45;&gt;vim&#45;runtime -->
<g id="edge2" class="edge">
<title>vim&#45;&gt;vim&#45;runtime</title>
<path fill="none" stroke="black" d="M1652.11,-802.85C1605.87,-791.77 1507.5,-768.18 1444.11,-752.99"/>
<polygon fill="black" stroke="black" points="1444.8,-749.55 1434.26,-750.62 1443.16,-756.36 1444.8,-749.55"/>
</g>
<!-- libacl1 -->
<g id="node4" class="node">
<title>libacl1</title>
<ellipse fill="none" stroke="black" cx="1624.77" cy="-522" rx="41.69" ry="18"/>
<text text-anchor="middle" x="1624.77" y="-518.3" font-family="Times,serif" font-size="14.00">libacl1</text>
</g>
<!-- vim&#45;&gt;libacl1 -->
<g id="edge3" class="edge">
<title>vim&#45;&gt;libacl1</title>
<path fill="none" stroke="black" d="M1674.61,-791.97C1665.76,-744.19 1640.63,-608.62 1629.82,-550.27"/>
<polygon fill="black" stroke="black" points="1633.24,-549.5 1627.97,-540.31 1626.35,-550.78 1633.24,-549.5"/>
</g>
<!-- libc6 -->
<g id="node5" class="node">
<title>libc6</title>
<ellipse fill="none" stroke="black" cx="1156.77" cy="-162" rx="33.29" ry="18"/>
<text text-anchor="middle" x="1156.77" y="-158.3" font-family="Times,serif" font-size="14.00">libc6</text>
</g>
<!-- vim&#45;&gt;libc6 -->
<g id="edge4" class="edge">
<title>vim&#45;&gt;libc6</title>
<path fill="none" stroke="black" d="M1702.78,-801.39C1750.48,-785.16 1849.77,-742.32 1849.77,-667 1849.77,-667 1849.77,-667 1849.77,-305 1849.77,-256.02 1827.46,-240 1784.77,-216 1734.04,-187.49 1333.94,-169.76 1200.16,-164.59"/>
<polygon fill="black" stroke="black" points="1200.02,-161.08 1189.89,-164.19 1199.75,-168.07 1200.02,-161.08"/>
</g>
<!-- libgpm2 -->
<g id="node6" class="node">
<title>libgpm2</title>
<ellipse fill="none" stroke="black" cx="1964.77" cy="-450" rx="48.99" ry="18"/>
<text text-anchor="middle" x="1964.77" y="-446.3" font-family="Times,serif" font-size="14.00">libgpm2</text>
</g>
<!-- vim&#45;&gt;libgpm2 -->
<g id="edge5" class="edge">
<title>vim&#45;&gt;libgpm2</title>
<path fill="none" stroke="black" d="M1705.58,-807.13C1773.97,-800.88 1944.77,-774.5 1944.77,-667 1944.77,-667 1944.77,-667 1944.77,-593 1944.77,-552.82 1952.71,-506.87 1958.59,-478.39"/>
<polygon fill="black" stroke="black" points="1962.06,-478.89 1960.72,-468.38 1955.21,-477.43 1962.06,-478.89"/>
</g>
<!-- libpython3.10 -->
<g id="node7" class="node">
<title>libpython3.10</title>
<ellipse fill="none" stroke="black" cx="1224.77" cy="-738" rx="75.29" ry="18"/>
<text text-anchor="middle" x="1224.77" y="-734.3" font-family="Times,serif" font-size="14.00">libpython3.10</text>
</g>
<!-- vim&#45;&gt;libpython3.10 -->
<g id="edge6" class="edge">
<title>vim&#45;&gt;libpython3.10</title>
<path fill="none" stroke="black" d="M1650.37,-805.61C1589.02,-797.89 1435.99,-777.99 1308.77,-756 1302.51,-754.92 1296.01,-753.73 1289.52,-752.49"/>
<polygon fill="black" stroke="black" points="1289.84,-748.99 1279.35,-750.52 1288.5,-755.86 1289.84,-748.99"/>
</g>
<!-- libselinux1 -->
<g id="node8" class="node">
<title>libselinux1</title>
<ellipse fill="none" stroke="black" cx="1668.77" cy="-306" rx="61.99" ry="18"/>
<text text-anchor="middle" x="1668.77" y="-302.3" font-family="Times,serif" font-size="14.00">libselinux1</text>
</g>
<!-- vim&#45;&gt;libselinux1 -->
<g id="edge7" class="edge">
<title>vim&#45;&gt;libselinux1</title>
<path fill="none" stroke="black" d="M1678.17,-791.82C1678.4,-781.44 1678.65,-767.96 1678.77,-756 1678.92,-740 1678.88,-736 1678.77,-720 1678.1,-623.99 1678.14,-599.98 1675.77,-504 1674.27,-443.44 1671.49,-372.43 1669.93,-334.39"/>
<polygon fill="black" stroke="black" points="1673.41,-333.97 1669.5,-324.12 1666.42,-334.26 1673.41,-333.97"/>
</g>
<!-- libsodium23 -->
<g id="node9" class="node">
<title>libsodium23</title>
<ellipse fill="none" stroke="black" cx="1753.77" cy="-378" rx="67.69" ry="18"/>
<text text-anchor="middle" x="1753.77" y="-374.3" font-family="Times,serif" font-size="14.00">libsodium23</text>
</g>
<!-- vim&#45;&gt;libsodium23 -->
<g id="edge8" class="edge">
<title>vim&#45;&gt;libsodium23</title>
<path fill="none" stroke="black" d="M1695.09,-795.44C1706.51,-785.64 1720.93,-771.44 1729.77,-756 1750.11,-720.44 1753.77,-707.97 1753.77,-667 1753.77,-667 1753.77,-667 1753.77,-521 1753.77,-481 1753.77,-434.65 1753.77,-406.08"/>
<polygon fill="black" stroke="black" points="1757.27,-406.05 1753.77,-396.05 1750.27,-406.05 1757.27,-406.05"/>
</g>
<!-- libtinfo6 -->
<g id="node10" class="node">
<title>libtinfo6</title>
<ellipse fill="none" stroke="black" cx="1382.77" cy="-522" rx="50.09" ry="18"/>
<text text-anchor="middle" x="1382.77" y="-518.3" font-family="Times,serif" font-size="14.00">libtinfo6</text>
</g>
<!-- vim&#45;&gt;libtinfo6 -->
<g id="edge9" class="edge">
<title>vim&#45;&gt;libtinfo6</title>
<path fill="none" stroke="black" d="M1650.04,-807.38C1612.26,-803.82 1544.32,-792.42 1500.77,-756 1434.33,-700.45 1401.35,-598.1 1388.88,-549.7"/>
<polygon fill="black" stroke="black" points="1392.27,-548.82 1386.46,-539.96 1385.47,-550.51 1392.27,-548.82"/>
</g>
<!-- xxd -->
<g id="node11" class="node">
<title>xxd</title>
<ellipse fill="none" stroke="black" cx="1560.77" cy="-666" rx="27.1" ry="18"/>
<text text-anchor="middle" x="1560.77" y="-662.3" font-family="Times,serif" font-size="14.00">xxd</text>
</g>
<!-- vim&#45;common&#45;&gt;xxd -->
<g id="edge10" class="edge">
<title>vim&#45;common&#45;&gt;xxd</title>
<path fill="none" stroke="black" d="M1575.07,-719.7C1572.95,-711.9 1570.4,-702.51 1568.05,-693.83"/>
<polygon fill="black" stroke="black" points="1571.41,-692.84 1565.41,-684.1 1564.65,-694.67 1571.41,-692.84"/>
</g>
<!-- libacl1&#45;&gt;libc6 -->
<g id="edge17" class="edge">
<title>libacl1&#45;&gt;libc6</title>
<path fill="none" stroke="black" d="M1614.65,-504.19C1600.04,-478.27 1574.77,-426.57 1574.77,-379 1574.77,-379 1574.77,-379 1574.77,-305 1574.77,-264.03 1581.55,-243.03 1550.77,-216 1499.33,-170.84 1291.06,-163.84 1199.88,-162.98"/>
<polygon fill="black" stroke="black" points="1199.9,-159.48 1189.87,-162.91 1199.84,-166.48 1199.9,-159.48"/>
</g>
<!-- libgcc&#45;s1 -->
<g id="node12" class="node">
<title>libgcc&#45;s1</title>
<ellipse fill="none" stroke="black" cx="158.77" cy="-90" rx="51.99" ry="18"/>
<text text-anchor="middle" x="158.77" y="-86.3" font-family="Times,serif" font-size="14.00">libgcc&#45;s1</text>
</g>
<!-- libc6&#45;&gt;libgcc&#45;s1 -->
<g id="edge12" class="edge">
<title>libc6&#45;&gt;libgcc&#45;s1</title>
<path fill="none" stroke="black" d="M1124.11,-158.89C980.82,-149.21 407.43,-109.01 219.03,-95.47"/>
<polygon fill="black" stroke="black" points="219.25,-91.98 209.03,-94.75 218.75,-98.96 219.25,-91.98"/>
</g>
<!-- libcrypt1 -->
<g id="node13" class="node">
<title>libcrypt1</title>
<ellipse fill="none" stroke="black" cx="1156.77" cy="-90" rx="52.79" ry="18"/>
<text text-anchor="middle" x="1156.77" y="-86.3" font-family="Times,serif" font-size="14.00">libcrypt1</text>
</g>
<!-- libc6&#45;&gt;libcrypt1 -->
<g id="edge13" class="edge">
<title>libc6&#45;&gt;libcrypt1</title>
<path fill="none" stroke="black" d="M1150.89,-144.05C1150.07,-136.35 1149.83,-127.03 1150.16,-118.36"/>
<polygon fill="black" stroke="black" points="1153.66,-118.49 1150.85,-108.28 1146.68,-118.01 1153.66,-118.49"/>
</g>
<!-- libgpm2&#45;&gt;libc6 -->
<g id="edge18" class="edge">
<title>libgpm2&#45;&gt;libc6</title>
<path fill="none" stroke="black" d="M1963.18,-431.83C1958.07,-387.44 1937.77,-268.64 1863.77,-216 1809.76,-177.59 1346.27,-166.3 1200.48,-163.68"/>
<polygon fill="black" stroke="black" points="1200.2,-160.17 1190.14,-163.5 1200.08,-167.17 1200.2,-160.17"/>
</g>
<!-- libpython3.10&#45;&gt;libc6 -->
<g id="edge19" class="edge">
<title>libpython3.10&#45;&gt;libc6</title>
<path fill="none" stroke="black" d="M1275.43,-724.62C1302.39,-716.27 1334.99,-703.21 1359.77,-684 1455.05,-610.1 1498.77,-571.58 1498.77,-451 1498.77,-451 1498.77,-451 1498.77,-305 1498.77,-260.68 1489.33,-242.46 1453.77,-216 1414.16,-186.54 1271.88,-171.73 1199.58,-165.97"/>
<polygon fill="black" stroke="black" points="1199.68,-162.46 1189.44,-165.18 1199.14,-169.44 1199.68,-162.46"/>
</g>
<!-- libpython3.10&#45;stdlib -->
<g id="node15" class="node">
<title>libpython3.10&#45;stdlib</title>
<ellipse fill="none" stroke="black" cx="638.77" cy="-666" rx="104.78" ry="18"/>
<text text-anchor="middle" x="638.77" y="-662.3" font-family="Times,serif" font-size="14.00">libpython3.10&#45;stdlib</text>
</g>
<!-- libpython3.10&#45;&gt;libpython3.10&#45;stdlib -->
<g id="edge20" class="edge">
<title>libpython3.10&#45;&gt;libpython3.10&#45;stdlib</title>
<path fill="none" stroke="black" d="M1158.97,-729.14C1054.81,-716.7 851.58,-692.42 732.31,-678.17"/>
<polygon fill="black" stroke="black" points="732.44,-674.67 722.1,-676.95 731.61,-681.62 732.44,-674.67"/>
</g>
<!-- libexpat1 -->
<g id="node16" class="node">
<title>libexpat1</title>
<ellipse fill="none" stroke="black" cx="1296.77" cy="-666" rx="53.89" ry="18"/>
<text text-anchor="middle" x="1296.77" y="-662.3" font-family="Times,serif" font-size="14.00">libexpat1</text>
</g>
<!-- libpython3.10&#45;&gt;libexpat1 -->
<g id="edge21" class="edge">
<title>libpython3.10&#45;&gt;libexpat1</title>
<path fill="none" stroke="black" d="M1241.83,-720.41C1250.97,-711.52 1262.4,-700.41 1272.46,-690.63"/>
<polygon fill="black" stroke="black" points="1275.09,-692.95 1279.82,-683.47 1270.21,-687.93 1275.09,-692.95"/>
</g>
<!-- zlib1g -->
<g id="node17" class="node">
<title>zlib1g</title>
<ellipse fill="none" stroke="black" cx="323.77" cy="-666" rx="38.99" ry="18"/>
<text text-anchor="middle" x="323.77" y="-662.3" font-family="Times,serif" font-size="14.00">zlib1g</text>
</g>
<!-- libpython3.10&#45;&gt;zlib1g -->
<g id="edge22" class="edge">
<title>libpython3.10&#45;&gt;zlib1g</title>
<path fill="none" stroke="black" d="M1153.7,-731.83C1027.21,-722.57 754.68,-702.43 524.77,-684 472.58,-679.82 412.8,-674.72 372.1,-671.21"/>
<polygon fill="black" stroke="black" points="372.18,-667.7 361.92,-670.33 371.58,-674.68 372.18,-667.7"/>
</g>
<!-- libselinux1&#45;&gt;libc6 -->
<g id="edge86" class="edge">
<title>libselinux1&#45;&gt;libc6</title>
<path fill="none" stroke="black" d="M1701.94,-290.62C1717.65,-281.91 1734.89,-269.13 1743.77,-252 1751.12,-237.79 1754.56,-227.81 1743.77,-216 1707.26,-176.05 1330.23,-165.93 1200.4,-163.63"/>
<polygon fill="black" stroke="black" points="1200.11,-160.12 1190.05,-163.45 1199.99,-167.12 1200.11,-160.12"/>
</g>
<!-- libpcre2&#45;8&#45;0 -->
<g id="node44" class="node">
<title>libpcre2&#45;8&#45;0</title>
<ellipse fill="none" stroke="black" cx="1668.77" cy="-234" rx="66.09" ry="18"/>
<text text-anchor="middle" x="1668.77" y="-230.3" font-family="Times,serif" font-size="14.00">libpcre2&#45;8&#45;0</text>
</g>
<!-- libselinux1&#45;&gt;libpcre2&#45;8&#45;0 -->
<g id="edge87" class="edge">
<title>libselinux1&#45;&gt;libpcre2&#45;8&#45;0</title>
<path fill="none" stroke="black" d="M1668.77,-287.7C1668.77,-279.98 1668.77,-270.71 1668.77,-262.11"/>
<polygon fill="black" stroke="black" points="1672.27,-262.1 1668.77,-252.1 1665.27,-262.1 1672.27,-262.1"/>
</g>
<!-- libsodium23&#45;&gt;libc6 -->
<g id="edge89" class="edge">
<title>libsodium23&#45;&gt;libc6</title>
<path fill="none" stroke="black" d="M1761.5,-360.04C1775.06,-327.48 1798.35,-255.93 1761.77,-216 1723.97,-174.75 1332.96,-165.47 1200.42,-163.5"/>
<polygon fill="black" stroke="black" points="1200.28,-160 1190.23,-163.36 1200.18,-167 1200.28,-160"/>
</g>
<!-- libtinfo6&#45;&gt;libc6 -->
<g id="edge55" class="edge">
<title>libtinfo6&#45;&gt;libc6</title>
<path fill="none" stroke="black" d="M1390.86,-503.95C1402.55,-477.72 1422.77,-425.61 1422.77,-379 1422.77,-379 1422.77,-379 1422.77,-305 1422.77,-264.03 1428.42,-244.27 1398.77,-216 1370.59,-189.14 1261.25,-173.76 1199.63,-167.06"/>
<polygon fill="black" stroke="black" points="1199.75,-163.56 1189.43,-165.99 1199.01,-170.52 1199.75,-163.56"/>
</g>
<!-- xxd&#45;&gt;libc6 -->
<g id="edge11" class="edge">
<title>xxd&#45;&gt;libc6</title>
<path fill="none" stroke="black" d="M1556.02,-648.11C1549.03,-621.66 1536.77,-568.75 1536.77,-523 1536.77,-523 1536.77,-523 1536.77,-305 1536.77,-264.03 1543.36,-243.25 1512.77,-216 1467.24,-175.46 1284.32,-165.93 1199.88,-163.69"/>
<polygon fill="black" stroke="black" points="1199.92,-160.19 1189.84,-163.44 1199.75,-167.19 1199.92,-160.19"/>
</g>
<!-- libgcc&#45;s1&#45;&gt;libc6 -->
<g id="edge14" class="edge">
<title>libgcc&#45;s1&#45;&gt;libc6</title>
<path fill="none" stroke="black" d="M209.47,-94.34C383.3,-106.19 952.71,-146.13 1113.94,-157.78"/>
<polygon fill="black" stroke="black" points="1113.73,-161.28 1123.96,-158.51 1114.24,-154.3 1113.73,-161.28"/>
</g>
<!-- gcc&#45;12&#45;base -->
<g id="node14" class="node">
<title>gcc&#45;12&#45;base</title>
<ellipse fill="none" stroke="black" cx="118.77" cy="-18" rx="65.79" ry="18"/>
<text text-anchor="middle" x="118.77" y="-14.3" font-family="Times,serif" font-size="14.00">gcc&#45;12&#45;base</text>
</g>
<!-- libgcc&#45;s1&#45;&gt;gcc&#45;12&#45;base -->
<g id="edge15" class="edge">
<title>libgcc&#45;s1&#45;&gt;gcc&#45;12&#45;base</title>
<path fill="none" stroke="black" d="M149.08,-72.05C144.48,-64.01 138.88,-54.2 133.75,-45.23"/>
<polygon fill="black" stroke="black" points="136.64,-43.22 128.64,-36.28 130.56,-46.69 136.64,-43.22"/>
</g>
<!-- libcrypt1&#45;&gt;libc6 -->
<g id="edge16" class="edge">
<title>libcrypt1&#45;&gt;libc6</title>
<path fill="none" stroke="black" d="M1162.68,-108.28C1163.48,-116.03 1163.71,-125.36 1163.36,-134.01"/>
<polygon fill="black" stroke="black" points="1159.86,-133.83 1162.64,-144.05 1166.84,-134.33 1159.86,-133.83"/>
</g>
<!-- libpython3.10&#45;stdlib&#45;&gt;libc6 -->
<g id="edge23" class="edge">
<title>libpython3.10&#45;stdlib&#45;&gt;libc6</title>
<path fill="none" stroke="black" d="M555.73,-655.03C508.98,-647.33 450.41,-634.12 401.77,-612 389.47,-606.41 311.1,-551.35 303.77,-540 281.81,-506.03 284.77,-491.45 284.77,-451 284.77,-451 284.77,-451 284.77,-305 284.77,-260.27 294.21,-240.31 331.77,-216 397.57,-173.4 951.95,-164.91 1113.04,-163.34"/>
<polygon fill="black" stroke="black" points="1113.54,-166.83 1123.51,-163.24 1113.47,-159.83 1113.54,-166.83"/>
</g>
<!-- libpython3.10&#45;stdlib&#45;&gt;libtinfo6 -->
<g id="edge24" class="edge">
<title>libpython3.10&#45;stdlib&#45;&gt;libtinfo6</title>
<path fill="none" stroke="black" d="M741.58,-662.36C922.21,-656.95 1282.09,-642.46 1330.77,-612 1353.19,-597.97 1367.05,-570.47 1374.77,-549.73"/>
<polygon fill="black" stroke="black" points="1378.11,-550.78 1378.07,-540.18 1371.49,-548.49 1378.11,-550.78"/>
</g>
<!-- libpython3.10&#45;stdlib&#45;&gt;libcrypt1 -->
<g id="edge25" class="edge">
<title>libpython3.10&#45;stdlib&#45;&gt;libcrypt1</title>
<path fill="none" stroke="black" d="M738.91,-660.63C878.57,-653.85 1139.6,-638.73 1360.77,-612 1478.68,-597.75 1887.77,-641.77 1887.77,-523 1887.77,-523 1887.77,-523 1887.77,-233 1887.77,-164.87 1392.11,-112.66 1217.08,-96.35"/>
<polygon fill="black" stroke="black" points="1217.29,-92.85 1207.01,-95.41 1216.64,-99.82 1217.29,-92.85"/>
</g>
<!-- libpython3.10&#45;minimal -->
<g id="node18" class="node">
<title>libpython3.10&#45;minimal</title>
<ellipse fill="none" stroke="black" cx="674.77" cy="-378" rx="115.88" ry="18"/>
<text text-anchor="middle" x="674.77" y="-374.3" font-family="Times,serif" font-size="14.00">libpython3.10&#45;minimal</text>
</g>
<!-- libpython3.10&#45;stdlib&#45;&gt;libpython3.10&#45;minimal -->
<g id="edge26" class="edge">
<title>libpython3.10&#45;stdlib&#45;&gt;libpython3.10&#45;minimal</title>
<path fill="none" stroke="black" d="M615.99,-648.28C605.25,-638.96 593.54,-626.33 587.77,-612 581.78,-597.16 584.46,-591.66 587.77,-576 601.44,-511.19 637.86,-441.73 658.99,-405.1"/>
<polygon fill="black" stroke="black" points="662.23,-406.49 664.26,-396.09 656.19,-402.95 662.23,-406.49"/>
</g>
<!-- media&#45;types -->
<g id="node19" class="node">
<title>media&#45;types</title>
<ellipse fill="none" stroke="black" cx="842.77" cy="-594" rx="67.69" ry="18"/>
<text text-anchor="middle" x="842.77" y="-590.3" font-family="Times,serif" font-size="14.00">media&#45;types</text>
</g>
<!-- libpython3.10&#45;stdlib&#45;&gt;media&#45;types -->
<g id="edge27" class="edge">
<title>libpython3.10&#45;stdlib&#45;&gt;media&#45;types</title>
<path fill="none" stroke="black" d="M683.53,-649.64C715.99,-638.5 759.86,-623.45 793.34,-611.96"/>
<polygon fill="black" stroke="black" points="794.61,-615.22 802.93,-608.67 792.34,-608.6 794.61,-615.22"/>
</g>
<!-- libbz2&#45;1.0 -->
<g id="node20" class="node">
<title>libbz2&#45;1.0</title>
<ellipse fill="none" stroke="black" cx="369.77" cy="-522" rx="56.59" ry="18"/>
<text text-anchor="middle" x="369.77" y="-518.3" font-family="Times,serif" font-size="14.00">libbz2&#45;1.0</text>
</g>
<!-- libpython3.10&#45;stdlib&#45;&gt;libbz2&#45;1.0 -->
<g id="edge28" class="edge">
<title>libpython3.10&#45;stdlib&#45;&gt;libbz2&#45;1.0</title>
<path fill="none" stroke="black" d="M555.9,-654.87C518.44,-647.38 475.01,-634.41 440.77,-612 416.24,-595.95 396.3,-568.63 383.87,-548.48"/>
<polygon fill="black" stroke="black" points="386.82,-546.6 378.7,-539.8 380.81,-550.18 386.82,-546.6"/>
</g>
<!-- libdb5.3 -->
<g id="node21" class="node">
<title>libdb5.3</title>
<ellipse fill="none" stroke="black" cx="407.77" cy="-450" rx="48.99" ry="18"/>
<text text-anchor="middle" x="407.77" y="-446.3" font-family="Times,serif" font-size="14.00">libdb5.3</text>
</g>
<!-- libpython3.10&#45;stdlib&#45;&gt;libdb5.3 -->
<g id="edge29" class="edge">
<title>libpython3.10&#45;stdlib&#45;&gt;libdb5.3</title>
<path fill="none" stroke="black" d="M562,-653.76C532.94,-646.14 501.44,-633.38 478.77,-612 441.17,-576.56 457.42,-550.91 435.77,-504 431.65,-495.08 426.75,-485.52 422.22,-477.02"/>
<polygon fill="black" stroke="black" points="425.15,-475.08 417.32,-467.95 419,-478.41 425.15,-475.08"/>
</g>
<!-- libffi8 -->
<g id="node22" class="node">
<title>libffi8</title>
<ellipse fill="none" stroke="black" cx="426.77" cy="-378" rx="37.89" ry="18"/>
<text text-anchor="middle" x="426.77" y="-374.3" font-family="Times,serif" font-size="14.00">libffi8</text>
</g>
<!-- libpython3.10&#45;stdlib&#45;&gt;libffi8 -->
<g id="edge30" class="edge">
<title>libpython3.10&#45;stdlib&#45;&gt;libffi8</title>
<path fill="none" stroke="black" d="M579.73,-651.05C557.24,-643.03 533.11,-630.69 516.77,-612 462.03,-549.41 502.32,-506.68 465.77,-432 460.87,-422 454.04,-411.92 447.47,-403.29"/>
<polygon fill="black" stroke="black" points="450.01,-400.86 441.06,-395.19 444.52,-405.2 450.01,-400.86"/>
</g>
<!-- liblzma5 -->
<g id="node23" class="node">
<title>liblzma5</title>
<ellipse fill="none" stroke="black" cx="476.77" cy="-234" rx="50.09" ry="18"/>
<text text-anchor="middle" x="476.77" y="-230.3" font-family="Times,serif" font-size="14.00">liblzma5</text>
</g>
<!-- libpython3.10&#45;stdlib&#45;&gt;liblzma5 -->
<g id="edge31" class="edge">
<title>libpython3.10&#45;stdlib&#45;&gt;liblzma5</title>
<path fill="none" stroke="black" d="M614.98,-648.23C603.18,-638.8 589.59,-626.11 580.77,-612 507.89,-495.57 485.25,-327.73 478.95,-262.44"/>
<polygon fill="black" stroke="black" points="482.41,-261.81 478.02,-252.17 475.44,-262.44 482.41,-261.81"/>
</g>
<!-- libmpdec3 -->
<g id="node24" class="node">
<title>libmpdec3</title>
<ellipse fill="none" stroke="black" cx="100.77" cy="-306" rx="59.29" ry="18"/>
<text text-anchor="middle" x="100.77" y="-302.3" font-family="Times,serif" font-size="14.00">libmpdec3</text>
</g>
<!-- libpython3.10&#45;stdlib&#45;&gt;libmpdec3 -->
<g id="edge32" class="edge">
<title>libpython3.10&#45;stdlib&#45;&gt;libmpdec3</title>
<path fill="none" stroke="black" d="M543.4,-658.47C429.26,-649.78 250.59,-633.02 227.77,-612 198.02,-584.6 208.77,-563.45 208.77,-523 208.77,-523 208.77,-523 208.77,-449 208.77,-397.96 164.02,-353.8 132.13,-328.8"/>
<polygon fill="black" stroke="black" points="134.01,-325.83 123.93,-322.57 129.78,-331.41 134.01,-325.83"/>
</g>
<!-- libncursesw6 -->
<g id="node25" class="node">
<title>libncursesw6</title>
<ellipse fill="none" stroke="black" cx="1066.77" cy="-594" rx="72.29" ry="18"/>
<text text-anchor="middle" x="1066.77" y="-590.3" font-family="Times,serif" font-size="14.00">libncursesw6</text>
</g>
<!-- libpython3.10&#45;stdlib&#45;&gt;libncursesw6 -->
<g id="edge33" class="edge">
<title>libpython3.10&#45;stdlib&#45;&gt;libncursesw6</title>
<path fill="none" stroke="black" d="M711.85,-653.05C791.94,-639.95 919.43,-619.1 997.83,-606.27"/>
<polygon fill="black" stroke="black" points="998.78,-609.67 1008.08,-604.6 997.65,-602.76 998.78,-609.67"/>
</g>
<!-- libnsl2 -->
<g id="node26" class="node">
<title>libnsl2</title>
<ellipse fill="none" stroke="black" cx="638.77" cy="-594" rx="42.49" ry="18"/>
<text text-anchor="middle" x="638.77" y="-590.3" font-family="Times,serif" font-size="14.00">libnsl2</text>
</g>
<!-- libpython3.10&#45;stdlib&#45;&gt;libnsl2 -->
<g id="edge34" class="edge">
<title>libpython3.10&#45;stdlib&#45;&gt;libnsl2</title>
<path fill="none" stroke="black" d="M638.77,-647.7C638.77,-639.98 638.77,-630.71 638.77,-622.11"/>
<polygon fill="black" stroke="black" points="642.27,-622.1 638.77,-612.1 635.27,-622.1 642.27,-622.1"/>
</g>
<!-- libreadline8 -->
<g id="node27" class="node">
<title>libreadline8</title>
<ellipse fill="none" stroke="black" cx="1255.77" cy="-594" rx="66.09" ry="18"/>
<text text-anchor="middle" x="1255.77" y="-590.3" font-family="Times,serif" font-size="14.00">libreadline8</text>
</g>
<!-- libpython3.10&#45;stdlib&#45;&gt;libreadline8 -->
<g id="edge35" class="edge">
<title>libpython3.10&#45;stdlib&#45;&gt;libreadline8</title>
<path fill="none" stroke="black" d="M729.5,-657C831.43,-647.67 1001.74,-631.08 1147.77,-612 1161.7,-610.18 1176.6,-607.99 1190.76,-605.8"/>
<polygon fill="black" stroke="black" points="1191.57,-609.21 1200.9,-604.21 1190.48,-602.3 1191.57,-609.21"/>
</g>
<!-- libsqlite3&#45;0 -->
<g id="node28" class="node">
<title>libsqlite3&#45;0</title>
<ellipse fill="none" stroke="black" cx="956.77" cy="-522" rx="63.09" ry="18"/>
<text text-anchor="middle" x="956.77" y="-518.3" font-family="Times,serif" font-size="14.00">libsqlite3&#45;0</text>
</g>
<!-- libpython3.10&#45;stdlib&#45;&gt;libsqlite3&#45;0 -->
<g id="edge36" class="edge">
<title>libpython3.10&#45;stdlib&#45;&gt;libsqlite3&#45;0</title>
<path fill="none" stroke="black" d="M669.91,-648.69C687.51,-638.93 709.55,-625.78 727.77,-612 746.32,-597.96 745.51,-587.45 765.77,-576 788.42,-563.19 850.97,-547.02 898.37,-535.93"/>
<polygon fill="black" stroke="black" points="899.28,-539.31 908.24,-533.64 897.7,-532.49 899.28,-539.31"/>
</g>
<!-- libtirpc3 -->
<g id="node29" class="node">
<title>libtirpc3</title>
<ellipse fill="none" stroke="black" cx="805.77" cy="-522" rx="50.09" ry="18"/>
<text text-anchor="middle" x="805.77" y="-518.3" font-family="Times,serif" font-size="14.00">libtirpc3</text>
</g>
<!-- libpython3.10&#45;stdlib&#45;&gt;libtirpc3 -->
<g id="edge37" class="edge">
<title>libpython3.10&#45;stdlib&#45;&gt;libtirpc3</title>
<path fill="none" stroke="black" d="M655.47,-647.9C673.81,-629.45 704.41,-599.55 732.77,-576 746.11,-564.92 761.57,-553.51 774.82,-544.12"/>
<polygon fill="black" stroke="black" points="776.98,-546.88 783.16,-538.28 772.96,-541.15 776.98,-546.88"/>
</g>
<!-- libuuid1 -->
<g id="node30" class="node">
<title>libuuid1</title>
<ellipse fill="none" stroke="black" cx="285.77" cy="-594" rx="48.99" ry="18"/>
<text text-anchor="middle" x="285.77" y="-590.3" font-family="Times,serif" font-size="14.00">libuuid1</text>
</g>
<!-- libpython3.10&#45;stdlib&#45;&gt;libuuid1 -->
<g id="edge38" class="edge">
<title>libpython3.10&#45;stdlib&#45;&gt;libuuid1</title>
<path fill="none" stroke="black" d="M564.82,-653.22C506.02,-643.44 421.78,-628.49 348.77,-612 343.71,-610.86 338.46,-609.58 333.23,-608.26"/>
<polygon fill="black" stroke="black" points="333.84,-604.8 323.28,-605.67 332.08,-611.57 333.84,-604.8"/>
</g>
<!-- libexpat1&#45;&gt;libc6 -->
<g id="edge84" class="edge">
<title>libexpat1&#45;&gt;libc6</title>
<path fill="none" stroke="black" d="M1316.24,-649.17C1329,-638.73 1345.98,-624.68 1360.77,-612 1397.32,-580.63 1417.53,-581.63 1441.77,-540 1462.12,-505.05 1460.77,-491.45 1460.77,-451 1460.77,-451 1460.77,-451 1460.77,-305 1460.77,-262.33 1457.65,-243.19 1424.77,-216 1391.02,-188.1 1266.56,-172.88 1199.78,-166.56"/>
<polygon fill="black" stroke="black" points="1199.86,-163.05 1189.58,-165.62 1199.22,-170.02 1199.86,-163.05"/>
</g>
<!-- zlib1g&#45;&gt;libc6 -->
<g id="edge85" class="edge">
<title>zlib1g&#45;&gt;libc6</title>
<path fill="none" stroke="black" d="M289.23,-657.54C262.62,-650.14 226.63,-636.3 203.77,-612 174.86,-581.28 170.77,-565.19 170.77,-523 170.77,-523 170.77,-523 170.77,-449 170.77,-340.48 158.21,-282.76 243.77,-216 312.81,-162.13 940.99,-161.75 1113.25,-162.67"/>
<polygon fill="black" stroke="black" points="1113.44,-166.17 1123.46,-162.73 1113.48,-159.17 1113.44,-166.17"/>
</g>
<!-- libpython3.10&#45;minimal&#45;&gt;libc6 -->
<g id="edge39" class="edge">
<title>libpython3.10&#45;minimal&#45;&gt;libc6</title>
<path fill="none" stroke="black" d="M654.85,-359.8C645.11,-350.26 634.14,-337.58 627.77,-324 607.28,-280.32 584.36,-251.74 616.77,-216 649.93,-179.42 990.9,-167.21 1113.31,-163.99"/>
<polygon fill="black" stroke="black" points="1113.54,-167.48 1123.45,-163.73 1113.36,-160.48 1113.54,-167.48"/>
</g>
<!-- libssl3 -->
<g id="node31" class="node">
<title>libssl3</title>
<ellipse fill="none" stroke="black" cx="721.77" cy="-306" rx="40.89" ry="18"/>
<text text-anchor="middle" x="721.77" y="-302.3" font-family="Times,serif" font-size="14.00">libssl3</text>
</g>
<!-- libpython3.10&#45;minimal&#45;&gt;libssl3 -->
<g id="edge40" class="edge">
<title>libpython3.10&#45;minimal&#45;&gt;libssl3</title>
<path fill="none" stroke="black" d="M686.14,-360.05C691.74,-351.71 698.61,-341.49 704.81,-332.25"/>
<polygon fill="black" stroke="black" points="707.82,-334.04 710.49,-323.79 702.01,-330.14 707.82,-334.04"/>
</g>
<!-- libbz2&#45;1.0&#45;&gt;libc6 -->
<g id="edge43" class="edge">
<title>libbz2&#45;1.0&#45;&gt;libc6</title>
<path fill="none" stroke="black" d="M360.25,-504.11C346.52,-478.09 322.77,-426.26 322.77,-379 322.77,-379 322.77,-379 322.77,-305 322.77,-258.96 336.53,-240.09 375.77,-216 438.74,-177.33 958.47,-166.11 1113.36,-163.61"/>
<polygon fill="black" stroke="black" points="1113.51,-167.11 1123.45,-163.45 1113.4,-160.11 1113.51,-167.11"/>
</g>
<!-- libdb5.3&#45;&gt;libc6 -->
<g id="edge44" class="edge">
<title>libdb5.3&#45;&gt;libc6</title>
<path fill="none" stroke="black" d="M396.17,-432.2C389.97,-422.18 382.97,-408.93 379.77,-396 366.4,-342.1 367.48,-243.91 396.77,-216 448.76,-166.43 959.88,-162.83 1113.39,-162.87"/>
<polygon fill="black" stroke="black" points="1113.39,-166.37 1123.39,-162.88 1113.4,-159.37 1113.39,-166.37"/>
</g>
<!-- libffi8&#45;&gt;libc6 -->
<g id="edge45" class="edge">
<title>libffi8&#45;&gt;libc6</title>
<path fill="none" stroke="black" d="M418.93,-360.24C405.01,-327.71 380.76,-255.75 417.77,-216 465.21,-165.03 961.19,-162.37 1112.91,-162.76"/>
<polygon fill="black" stroke="black" points="1113.22,-166.26 1123.23,-162.79 1113.24,-159.26 1113.22,-166.26"/>
</g>
<!-- liblzma5&#45;&gt;libc6 -->
<g id="edge46" class="edge">
<title>liblzma5&#45;&gt;libc6</title>
<path fill="none" stroke="black" d="M514.09,-221.92C522.78,-219.67 532.04,-217.52 540.77,-216 753.7,-178.85 1012.8,-167.35 1113.68,-164.14"/>
<polygon fill="black" stroke="black" points="1113.9,-167.63 1123.78,-163.82 1113.68,-160.63 1113.9,-167.63"/>
</g>
<!-- libmpdec3&#45;&gt;libc6 -->
<g id="edge47" class="edge">
<title>libmpdec3&#45;&gt;libc6</title>
<path fill="none" stroke="black" d="M117.03,-288.41C141.35,-263.8 185.32,-220.07 194.77,-216 279.78,-179.4 937.01,-166.47 1113.34,-163.64"/>
<polygon fill="black" stroke="black" points="1113.6,-167.13 1123.54,-163.48 1113.49,-160.14 1113.6,-167.13"/>
</g>
<!-- libmpdec3&#45;&gt;libgcc&#45;s1 -->
<g id="edge48" class="edge">
<title>libmpdec3&#45;&gt;libgcc&#45;s1</title>
<path fill="none" stroke="black" d="M59.52,-292.97C39.55,-284.84 17.43,-271.87 5.77,-252 -2.34,-238.2 -1.09,-230.46 5.77,-216 29.21,-166.57 82.82,-130.22 119.92,-109.83"/>
<polygon fill="black" stroke="black" points="121.8,-112.79 128.96,-104.99 118.5,-106.62 121.8,-112.79"/>
</g>
<!-- libstdc++6 -->
<g id="node33" class="node">
<title>libstdc++6</title>
<ellipse fill="none" stroke="black" cx="78.77" cy="-234" rx="63.89" ry="18"/>
<text text-anchor="middle" x="78.77" y="-230.3" font-family="Times,serif" font-size="14.00">libstdc++6</text>
</g>
<!-- libmpdec3&#45;&gt;libstdc++6 -->
<g id="edge49" class="edge">
<title>libmpdec3&#45;&gt;libstdc++6</title>
<path fill="none" stroke="black" d="M95.44,-288.05C92.99,-280.26 90.02,-270.82 87.28,-262.08"/>
<polygon fill="black" stroke="black" points="90.53,-260.77 84.19,-252.28 83.85,-262.86 90.53,-260.77"/>
</g>
<!-- libncursesw6&#45;&gt;libc6 -->
<g id="edge53" class="edge">
<title>libncursesw6&#45;&gt;libc6</title>
<path fill="none" stroke="black" d="M1065.42,-575.8C1064.87,-555.83 1067.2,-523.19 1085.77,-504 1131.94,-456.28 1180.4,-511.27 1230.77,-468 1282.61,-423.46 1273.82,-391.47 1284.77,-324 1292.51,-276.28 1301.36,-254.23 1271.77,-216 1253.59,-192.52 1222.58,-179.06 1197.34,-171.59"/>
<polygon fill="black" stroke="black" points="1198.2,-168.2 1187.63,-168.92 1196.35,-174.95 1198.2,-168.2"/>
</g>
<!-- libncursesw6&#45;&gt;libtinfo6 -->
<g id="edge54" class="edge">
<title>libncursesw6&#45;&gt;libtinfo6</title>
<path fill="none" stroke="black" d="M1118.95,-581.44C1177.77,-568.41 1272.82,-547.35 1331.34,-534.39"/>
<polygon fill="black" stroke="black" points="1332.11,-537.81 1341.11,-532.23 1330.59,-530.97 1332.11,-537.81"/>
</g>
<!-- libnsl2&#45;&gt;libc6 -->
<g id="edge56" class="edge">
<title>libnsl2&#45;&gt;libc6</title>
<path fill="none" stroke="black" d="M628.33,-576.46C608.3,-543.61 565.1,-467.18 549.77,-396 532.35,-315.17 532.21,-267.66 596.77,-216 636.87,-183.91 989.22,-168.77 1113.55,-164.39"/>
<polygon fill="black" stroke="black" points="1113.96,-167.88 1123.83,-164.04 1113.72,-160.89 1113.96,-167.88"/>
</g>
<!-- libnsl2&#45;&gt;libtirpc3 -->
<g id="edge57" class="edge">
<title>libnsl2&#45;&gt;libtirpc3</title>
<path fill="none" stroke="black" d="M667.85,-580.81C694.75,-569.53 735,-552.66 765.08,-540.05"/>
<polygon fill="black" stroke="black" points="766.59,-543.22 774.46,-536.12 763.88,-536.76 766.59,-543.22"/>
</g>
<!-- libreadline8&#45;&gt;libc6 -->
<g id="edge77" class="edge">
<title>libreadline8&#45;&gt;libc6</title>
<path fill="none" stroke="black" d="M1267.08,-576.1C1279.85,-557.55 1301.72,-527.32 1323.77,-504 1340.65,-486.13 1353.2,-489.13 1365.77,-468 1386.43,-433.23 1384.77,-419.45 1384.77,-379 1384.77,-379 1384.77,-379 1384.77,-305 1384.77,-218.24 1264.34,-182.59 1198.53,-169.58"/>
<polygon fill="black" stroke="black" points="1198.94,-166.1 1188.47,-167.68 1197.65,-172.97 1198.94,-166.1"/>
</g>
<!-- libreadline8&#45;&gt;libtinfo6 -->
<g id="edge78" class="edge">
<title>libreadline8&#45;&gt;libtinfo6</title>
<path fill="none" stroke="black" d="M1283.64,-577.64C1302.5,-567.24 1327.58,-553.42 1347.79,-542.28"/>
<polygon fill="black" stroke="black" points="1349.62,-545.26 1356.69,-537.37 1346.24,-539.13 1349.62,-545.26"/>
</g>
<!-- readline&#45;common -->
<g id="node41" class="node">
<title>readline&#45;common</title>
<ellipse fill="none" stroke="black" cx="1185.77" cy="-522" rx="90.98" ry="18"/>
<text text-anchor="middle" x="1185.77" y="-518.3" font-family="Times,serif" font-size="14.00">readline&#45;common</text>
</g>
<!-- libreadline8&#45;&gt;readline&#45;common -->
<g id="edge79" class="edge">
<title>libreadline8&#45;&gt;readline&#45;common</title>
<path fill="none" stroke="black" d="M1239.18,-576.41C1230.41,-567.65 1219.5,-556.73 1209.82,-547.06"/>
<polygon fill="black" stroke="black" points="1212.27,-544.55 1202.72,-539.96 1207.32,-549.5 1212.27,-544.55"/>
</g>
<!-- libsqlite3&#45;0&#45;&gt;libc6 -->
<g id="edge82" class="edge">
<title>libsqlite3&#45;0&#45;&gt;libc6</title>
<path fill="none" stroke="black" d="M1007.7,-511.29C1077.75,-497.75 1196.11,-474.18 1203.77,-468 1231.09,-445.95 1261.38,-358.32 1268.77,-324 1272.13,-308.36 1270.93,-303.85 1268.77,-288 1264.28,-255.09 1269.12,-242.25 1248.77,-216 1234.75,-197.93 1212.72,-184.93 1193.73,-176.33"/>
<polygon fill="black" stroke="black" points="1194.99,-173.06 1184.42,-172.34 1192.23,-179.49 1194.99,-173.06"/>
</g>
<!-- libtirpc3&#45;&gt;libc6 -->
<g id="edge58" class="edge">
<title>libtirpc3&#45;&gt;libc6</title>
<path fill="none" stroke="black" d="M811.06,-503.76C819.75,-471.66 832.99,-402.2 799.77,-360 763.21,-313.57 707.45,-371.11 671.77,-324 659.79,-308.2 660.54,-232.9 676.77,-216 706.75,-184.77 1000.92,-169.43 1113.37,-164.67"/>
<polygon fill="black" stroke="black" points="1113.82,-168.15 1123.67,-164.24 1113.53,-161.16 1113.82,-168.15"/>
</g>
<!-- libgssapi&#45;krb5&#45;2 -->
<g id="node34" class="node">
<title>libgssapi&#45;krb5&#45;2</title>
<ellipse fill="none" stroke="black" cx="918.77" cy="-450" rx="85.29" ry="18"/>
<text text-anchor="middle" x="918.77" y="-446.3" font-family="Times,serif" font-size="14.00">libgssapi&#45;krb5&#45;2</text>
</g>
<!-- libtirpc3&#45;&gt;libgssapi&#45;krb5&#45;2 -->
<g id="edge59" class="edge">
<title>libtirpc3&#45;&gt;libgssapi&#45;krb5&#45;2</title>
<path fill="none" stroke="black" d="M829.73,-506.15C845.4,-496.45 866.13,-483.61 883.64,-472.76"/>
<polygon fill="black" stroke="black" points="885.81,-475.53 892.47,-467.29 882.12,-469.58 885.81,-475.53"/>
</g>
<!-- libtirpc&#45;common -->
<g id="node35" class="node">
<title>libtirpc&#45;common</title>
<ellipse fill="none" stroke="black" cx="1108.77" cy="-450" rx="86.38" ry="18"/>
<text text-anchor="middle" x="1108.77" y="-446.3" font-family="Times,serif" font-size="14.00">libtirpc&#45;common</text>
</g>
<!-- libtirpc3&#45;&gt;libtirpc&#45;common -->
<g id="edge60" class="edge">
<title>libtirpc3&#45;&gt;libtirpc&#45;common</title>
<path fill="none" stroke="black" d="M846.63,-511.56C897.02,-499.92 983.32,-479.98 1043.06,-466.18"/>
<polygon fill="black" stroke="black" points="1044.2,-469.51 1053.15,-463.85 1042.62,-462.69 1044.2,-469.51"/>
</g>
<!-- libuuid1&#45;&gt;libc6 -->
<g id="edge83" class="edge">
<title>libuuid1&#45;&gt;libc6</title>
<path fill="none" stroke="black" d="M277.87,-575.93C266.48,-549.67 246.77,-497.53 246.77,-451 246.77,-451 246.77,-451 246.77,-305 246.77,-264.03 239,-241.87 270.77,-216 336.55,-162.41 945.03,-161.8 1113.63,-162.68"/>
<polygon fill="black" stroke="black" points="1113.62,-166.18 1123.64,-162.73 1113.66,-159.18 1113.62,-166.18"/>
</g>
<!-- libssl3&#45;&gt;libc6 -->
<g id="edge41" class="edge">
<title>libssl3&#45;&gt;libc6</title>
<path fill="none" stroke="black" d="M706.78,-289.06C690.42,-269.72 668.92,-237.09 687.77,-216 715.89,-184.51 1002.72,-169.37 1113.46,-164.67"/>
<polygon fill="black" stroke="black" points="1113.77,-168.16 1123.62,-164.24 1113.48,-161.16 1113.77,-168.16"/>
</g>
<!-- debconf -->
<g id="node32" class="node">
<title>debconf</title>
<ellipse fill="none" stroke="black" cx="743.77" cy="-234" rx="47.39" ry="18"/>
<text text-anchor="middle" x="743.77" y="-230.3" font-family="Times,serif" font-size="14.00">debconf</text>
</g>
<!-- libssl3&#45;&gt;debconf -->
<g id="edge42" class="edge">
<title>libssl3&#45;&gt;debconf</title>
<path fill="none" stroke="black" d="M727.09,-288.05C729.54,-280.26 732.51,-270.82 735.25,-262.08"/>
<polygon fill="black" stroke="black" points="738.68,-262.86 738.34,-252.28 732,-260.77 738.68,-262.86"/>
</g>
<!-- libstdc++6&#45;&gt;libc6 -->
<g id="edge50" class="edge">
<title>libstdc++6&#45;&gt;libc6</title>
<path fill="none" stroke="black" d="M125.15,-221.6C135.5,-219.42 146.46,-217.39 156.77,-216 524.1,-166.57 973.16,-162.71 1113.05,-162.8"/>
<polygon fill="black" stroke="black" points="1113.34,-166.3 1123.35,-162.82 1113.35,-159.3 1113.34,-166.3"/>
</g>
<!-- libstdc++6&#45;&gt;libgcc&#45;s1 -->
<g id="edge51" class="edge">
<title>libstdc++6&#45;&gt;libgcc&#45;s1</title>
<path fill="none" stroke="black" d="M88.26,-216.15C102.09,-191.6 127.91,-145.77 144.17,-116.91"/>
<polygon fill="black" stroke="black" points="147.43,-118.26 149.29,-107.82 141.33,-114.82 147.43,-118.26"/>
</g>
<!-- libstdc++6&#45;&gt;gcc&#45;12&#45;base -->
<g id="edge52" class="edge">
<title>libstdc++6&#45;&gt;gcc&#45;12&#45;base</title>
<path fill="none" stroke="black" d="M79.33,-215.82C80.64,-186.08 84.81,-123.3 97.77,-72 99.99,-63.17 103.33,-53.84 106.7,-45.52"/>
<polygon fill="black" stroke="black" points="109.93,-46.86 110.59,-36.29 103.48,-44.14 109.93,-46.86"/>
</g>
<!-- libgssapi&#45;krb5&#45;2&#45;&gt;libc6 -->
<g id="edge61" class="edge">
<title>libgssapi&#45;krb5&#45;2&#45;&gt;libc6</title>
<path fill="none" stroke="black" d="M974.34,-436.3C1060.48,-415.36 1219.7,-371.17 1251.77,-324 1271.8,-294.53 1225.94,-217.6 1224.77,-216 1214.75,-202.38 1200.34,-190.46 1187.36,-181.39"/>
<polygon fill="black" stroke="black" points="1188.93,-178.23 1178.67,-175.59 1185.04,-184.05 1188.93,-178.23"/>
</g>
<!-- libcom&#45;err2 -->
<g id="node36" class="node">
<title>libcom&#45;err2</title>
<ellipse fill="none" stroke="black" cx="1178.77" cy="-306" rx="64.19" ry="18"/>
<text text-anchor="middle" x="1178.77" y="-302.3" font-family="Times,serif" font-size="14.00">libcom&#45;err2</text>
</g>
<!-- libgssapi&#45;krb5&#45;2&#45;&gt;libcom&#45;err2 -->
<g id="edge62" class="edge">
<title>libgssapi&#45;krb5&#45;2&#45;&gt;libcom&#45;err2</title>
<path fill="none" stroke="black" d="M950.83,-433.15C971.49,-422.81 998.87,-408.9 1022.77,-396 1064.72,-373.36 1112.21,-346.01 1143.66,-327.66"/>
<polygon fill="black" stroke="black" points="1145.61,-330.57 1152.48,-322.5 1142.08,-324.53 1145.61,-330.57"/>
</g>
<!-- libk5crypto3 -->
<g id="node37" class="node">
<title>libk5crypto3</title>
<ellipse fill="none" stroke="black" cx="1026.77" cy="-306" rx="69.59" ry="18"/>
<text text-anchor="middle" x="1026.77" y="-302.3" font-family="Times,serif" font-size="14.00">libk5crypto3</text>
</g>
<!-- libgssapi&#45;krb5&#45;2&#45;&gt;libk5crypto3 -->
<g id="edge63" class="edge">
<title>libgssapi&#45;krb5&#45;2&#45;&gt;libk5crypto3</title>
<path fill="none" stroke="black" d="M953.23,-433.46C969.43,-424.58 987.77,-412.01 999.77,-396 1013.26,-377.98 1020.07,-353.2 1023.46,-334.35"/>
<polygon fill="black" stroke="black" points="1026.95,-334.74 1025.06,-324.31 1020.03,-333.64 1026.95,-334.74"/>
</g>
<!-- libkrb5&#45;3 -->
<g id="node38" class="node">
<title>libkrb5&#45;3</title>
<ellipse fill="none" stroke="black" cx="937.77" cy="-378" rx="52.79" ry="18"/>
<text text-anchor="middle" x="937.77" y="-374.3" font-family="Times,serif" font-size="14.00">libkrb5&#45;3</text>
</g>
<!-- libgssapi&#45;krb5&#45;2&#45;&gt;libkrb5&#45;3 -->
<g id="edge64" class="edge">
<title>libgssapi&#45;krb5&#45;2&#45;&gt;libkrb5&#45;3</title>
<path fill="none" stroke="black" d="M923.46,-431.7C925.58,-423.9 928.13,-414.51 930.48,-405.83"/>
<polygon fill="black" stroke="black" points="933.88,-406.67 933.12,-396.1 927.13,-404.84 933.88,-406.67"/>
</g>
<!-- libkrb5support0 -->
<g id="node39" class="node">
<title>libkrb5support0</title>
<ellipse fill="none" stroke="black" cx="1042.77" cy="-234" rx="85.59" ry="18"/>
<text text-anchor="middle" x="1042.77" y="-230.3" font-family="Times,serif" font-size="14.00">libkrb5support0</text>
</g>
<!-- libgssapi&#45;krb5&#45;2&#45;&gt;libkrb5support0 -->
<g id="edge65" class="edge">
<title>libgssapi&#45;krb5&#45;2&#45;&gt;libkrb5support0</title>
<path fill="none" stroke="black" d="M900.17,-432.3C890.92,-422.72 880.68,-409.85 875.77,-396 859.15,-349.16 869.34,-322.86 904.77,-288 923.18,-269.89 948.44,-257.82 972.32,-249.85"/>
<polygon fill="black" stroke="black" points="973.59,-253.12 982.09,-246.79 971.5,-246.44 973.59,-253.12"/>
</g>
<!-- libcom&#45;err2&#45;&gt;libc6 -->
<g id="edge66" class="edge">
<title>libcom&#45;err2&#45;&gt;libc6</title>
<path fill="none" stroke="black" d="M1191.75,-288.04C1203.91,-269.96 1218.82,-240.6 1208.77,-216 1203.61,-203.38 1193.84,-192.15 1184.15,-183.3"/>
<polygon fill="black" stroke="black" points="1186.36,-180.59 1176.49,-176.74 1181.81,-185.9 1186.36,-180.59"/>
</g>
<!-- libk5crypto3&#45;&gt;libc6 -->
<g id="edge67" class="edge">
<title>libk5crypto3&#45;&gt;libc6</title>
<path fill="none" stroke="black" d="M1076.38,-293.19C1113.43,-283.25 1159.53,-268.11 1170.77,-252 1183.64,-233.54 1177.62,-207.71 1169.87,-188.63"/>
<polygon fill="black" stroke="black" points="1173.01,-187.06 1165.76,-179.34 1166.61,-189.9 1173.01,-187.06"/>
</g>
<!-- libk5crypto3&#45;&gt;libkrb5support0 -->
<g id="edge68" class="edge">
<title>libk5crypto3&#45;&gt;libkrb5support0</title>
<path fill="none" stroke="black" d="M1030.72,-287.7C1032.48,-279.98 1034.6,-270.71 1036.57,-262.11"/>
<polygon fill="black" stroke="black" points="1040.04,-262.63 1038.86,-252.1 1033.22,-261.07 1040.04,-262.63"/>
</g>
<!-- libkrb5&#45;3&#45;&gt;libc6 -->
<g id="edge70" class="edge">
<title>libkrb5&#45;3&#45;&gt;libc6</title>
<path fill="none" stroke="black" d="M934.25,-359.83C931.26,-339.88 929.9,-307.27 947.77,-288 1006.21,-224.98 1076.29,-312.07 1137.77,-252 1153.97,-236.16 1157.98,-210.13 1158.38,-190.3"/>
<polygon fill="black" stroke="black" points="1161.87,-189.99 1158.28,-180.03 1154.87,-190.06 1161.87,-189.99"/>
</g>
<!-- libkrb5&#45;3&#45;&gt;libssl3 -->
<g id="edge71" class="edge">
<title>libkrb5&#45;3&#45;&gt;libssl3</title>
<path fill="none" stroke="black" d="M900.63,-364.97C862.49,-352.61 803.24,-333.4 763.5,-320.53"/>
<polygon fill="black" stroke="black" points="764.43,-317.15 753.84,-317.39 762.27,-323.81 764.43,-317.15"/>
</g>
<!-- libkrb5&#45;3&#45;&gt;libcom&#45;err2 -->
<g id="edge72" class="edge">
<title>libkrb5&#45;3&#45;&gt;libcom&#45;err2</title>
<path fill="none" stroke="black" d="M976.49,-365.75C1017.02,-353.98 1080.93,-335.42 1126.05,-322.31"/>
<polygon fill="black" stroke="black" points="1127.04,-325.67 1135.66,-319.52 1125.08,-318.95 1127.04,-325.67"/>
</g>
<!-- libkrb5&#45;3&#45;&gt;libk5crypto3 -->
<g id="edge73" class="edge">
<title>libkrb5&#45;3&#45;&gt;libk5crypto3</title>
<path fill="none" stroke="black" d="M957.96,-361.12C969.74,-351.85 984.8,-340.01 997.82,-329.76"/>
<polygon fill="black" stroke="black" points="1000.34,-332.24 1006.03,-323.31 996.01,-326.74 1000.34,-332.24"/>
</g>
<!-- libkrb5&#45;3&#45;&gt;libkrb5support0 -->
<g id="edge74" class="edge">
<title>libkrb5&#45;3&#45;&gt;libkrb5support0</title>
<path fill="none" stroke="black" d="M925.99,-360.24C914.26,-341.28 899.96,-310.16 914.77,-288 927.28,-269.27 947.77,-257.15 968.73,-249.31"/>
<polygon fill="black" stroke="black" points="970.04,-252.56 978.36,-246.01 967.76,-245.94 970.04,-252.56"/>
</g>
<!-- libkeyutils1 -->
<g id="node40" class="node">
<title>libkeyutils1</title>
<ellipse fill="none" stroke="black" cx="873.77" cy="-234" rx="64.99" ry="18"/>
<text text-anchor="middle" x="873.77" y="-230.3" font-family="Times,serif" font-size="14.00">libkeyutils1</text>
</g>
<!-- libkrb5&#45;3&#45;&gt;libkeyutils1 -->
<g id="edge75" class="edge">
<title>libkrb5&#45;3&#45;&gt;libkeyutils1</title>
<path fill="none" stroke="black" d="M912.12,-362.01C899.03,-352.84 884.31,-339.83 876.77,-324 867.59,-304.75 867.43,-280.41 869.24,-262.05"/>
<polygon fill="black" stroke="black" points="872.73,-262.37 870.47,-252.01 865.78,-261.51 872.73,-262.37"/>
</g>
<!-- libkrb5support0&#45;&gt;libc6 -->
<g id="edge69" class="edge">
<title>libkrb5support0&#45;&gt;libc6</title>
<path fill="none" stroke="black" d="M1069.21,-216.76C1086.35,-206.24 1108.72,-192.5 1126.56,-181.55"/>
<polygon fill="black" stroke="black" points="1128.73,-184.32 1135.42,-176.1 1125.07,-178.35 1128.73,-184.32"/>
</g>
<!-- libkeyutils1&#45;&gt;libc6 -->
<g id="edge76" class="edge">
<title>libkeyutils1&#45;&gt;libc6</title>
<path fill="none" stroke="black" d="M920.5,-221.44C975.54,-207.83 1066,-185.45 1117.55,-172.7"/>
<polygon fill="black" stroke="black" points="1118.45,-176.08 1127.32,-170.28 1116.77,-169.29 1118.45,-176.08"/>
</g>
<!-- dpkg -->
<g id="node42" class="node">
<title>dpkg</title>
<ellipse fill="none" stroke="black" cx="1322.77" cy="-450" rx="33.6" ry="18"/>
<text text-anchor="middle" x="1322.77" y="-446.3" font-family="Times,serif" font-size="14.00">dpkg</text>
</g>
<!-- readline&#45;common&#45;&gt;dpkg -->
<g id="edge80" class="edge">
<title>readline&#45;common&#45;&gt;dpkg</title>
<path fill="none" stroke="black" d="M1217.2,-504.94C1239.04,-493.78 1268.08,-478.94 1290.17,-467.65"/>
<polygon fill="black" stroke="black" points="1291.86,-470.72 1299.17,-463.05 1288.68,-464.49 1291.86,-470.72"/>
</g>
<!-- tar -->
<g id="node43" class="node">
<title>tar</title>
<ellipse fill="none" stroke="black" cx="1329.77" cy="-378" rx="27" ry="18"/>
<text text-anchor="middle" x="1329.77" y="-374.3" font-family="Times,serif" font-size="14.00">tar</text>
</g>
<!-- dpkg&#45;&gt;tar -->
<g id="edge81" class="edge">
<title>dpkg&#45;&gt;tar</title>
<path fill="none" stroke="black" d="M1324.5,-431.7C1325.27,-423.98 1326.19,-414.71 1327.05,-406.11"/>
<polygon fill="black" stroke="black" points="1330.54,-406.4 1328.05,-396.1 1323.58,-405.71 1330.54,-406.4"/>
</g>
<!-- libpcre2&#45;8&#45;0&#45;&gt;libc6 -->
<g id="edge88" class="edge">
<title>libpcre2&#45;8&#45;0&#45;&gt;libc6</title>
<path fill="none" stroke="black" d="M1619.39,-221.8C1609.29,-219.71 1598.71,-217.66 1588.77,-216 1446.94,-192.28 1277.25,-174.54 1199.5,-166.99"/>
<polygon fill="black" stroke="black" points="1199.44,-163.47 1189.15,-166 1198.77,-170.44 1199.44,-163.47"/>
</g>
</g>
</svg>
